<svg version="1.1" id="Layer_1" xmlns="http://www.w3.org/2000/svg" xmlns:xlink="http://www.w3.org/1999/xlink" x="0px" y="0px"
	 width="100%" viewBox="0 0 95 95" enable-background="new 0 0 95 95" xml:space="preserve">
<path fill="#171A21" opacity="1.000000" stroke="none" 
	d="
M96.000000,79.000000 
	C96.000000,84.655487 96.000000,90.310974 96.000000,95.983231 
	C64.406990,95.983231 32.813969,95.983231 1.110473,95.983231 
	C1.110473,64.333580 1.110473,32.666851 1.110473,1.000000 
	C6.413469,1.000000 11.736281,1.000000 17.546032,1.361439 
	C18.822668,3.114990 19.357805,4.757606 20.442276,5.859647 
	C29.237551,14.797422 38.108524,23.661518 47.037155,32.466206 
	C48.155357,33.568886 49.743744,34.194763 51.061890,35.465088 
	C49.925762,37.345272 48.842018,38.801929 47.309250,40.862125 
	C47.309250,46.190338 47.309250,52.538029 47.309250,58.916492 
	C48.771484,58.916492 49.922043,58.916492 51.046585,59.362614 
	C51.591164,60.863693 52.448738,62.896927 52.689159,62.826397 
	C56.117725,61.820591 60.404305,65.494698 63.422447,60.924789 
	C64.130348,60.283894 64.564323,59.716473 65.427559,59.059719 
	C66.231094,57.880672 66.892296,56.800850 66.930229,55.699554 
	C67.098846,50.803902 67.088966,45.902103 67.524963,41.046616 
	C68.604408,42.394676 69.863800,43.679688 69.908585,45.005722 
	C70.178429,52.995914 72.644699,59.671249 79.192978,64.859848 
	C83.457558,68.238922 86.914886,72.619499 90.941742,76.325523 
	C92.298836,77.574493 94.295593,78.128418 96.000000,79.000000 
M38.326027,50.997787 
	C39.783974,50.932503 41.241924,50.867218 42.699871,50.801933 
	C42.976391,50.413643 43.252911,50.025352 43.529427,49.637062 
	C42.555649,48.758808 41.612259,47.163563 40.603073,47.120792 
	C34.843018,46.876682 29.067295,47.002300 23.296896,47.002300 
	C23.036407,47.513157 22.775919,48.024014 22.515430,48.534874 
	C23.645580,49.354893 24.726501,50.786327 25.914972,50.882019 
	C29.708115,51.187424 33.541199,50.996769 38.326027,50.997787 
z"/>
<path fill="#191D25" opacity="1.000000" stroke="none" 
	d="
M96.000000,78.531342 
	C94.295593,78.128418 92.298836,77.574493 90.941742,76.325523 
	C86.914886,72.619499 83.457558,68.238922 79.192978,64.859848 
	C72.644699,59.671249 70.178429,52.995914 69.908585,45.005722 
	C69.863800,43.679688 68.604408,42.394676 67.452324,40.721764 
	C66.664558,39.846283 66.330765,39.339748 65.931992,38.527382 
	C64.963867,37.481945 64.060730,36.742352 62.928970,35.629295 
	C58.838326,35.184410 54.976299,35.112988 51.114277,35.041565 
	C49.743744,34.194763 48.155357,33.568886 47.037155,32.466206 
	C38.108524,23.661518 29.237551,14.797422 20.442276,5.859647 
	C19.357805,4.757606 18.822668,3.114990 18.016483,1.361439 
	C43.926884,1.000000 69.853767,1.000000 96.000000,1.000000 
	C96.000000,26.687145 96.000000,52.374912 96.000000,78.531342 
z"/>
<path fill="#D9D9D9" opacity="1.000000" stroke="none" 
	d="
M65.996971,38.833218 
	C66.330765,39.339748 66.664558,39.846283 67.070984,40.677670 
	C67.088966,45.902103 67.098846,50.803902 66.930229,55.699554 
	C66.892296,56.800850 66.231094,57.880672 65.087219,58.989174 
	C63.855057,58.981956 63.392498,58.955948 62.965065,58.965057 
	C63.000183,59.000179 63.070419,59.070419 63.035782,58.605217 
	C63.001144,54.468002 63.001144,50.795986 63.001144,47.132721 
	C61.308834,47.029213 60.176453,46.959949 59.022949,46.473946 
	C60.324692,44.240807 61.647556,42.424412 63.204651,40.286396 
	C58.746033,40.286396 55.005833,40.286396 51.237930,40.286396 
	C51.237930,43.997398 51.237930,47.417694 51.237930,50.857193 
	C52.631355,50.954685 53.789051,51.035686 54.966213,51.531281 
	C54.549072,52.948475 54.054131,54.840332 53.684883,54.816113 
	C49.993671,54.573963 51.205997,57.274437 50.963848,59.033978 
	C51.000385,58.995083 51.072601,58.916492 51.072601,58.916492 
	C49.922043,58.916492 48.771484,58.916492 47.309250,58.916492 
	C47.309250,52.538029 47.309250,46.190338 47.309250,40.862125 
	C48.842018,38.801929 49.925762,37.345272 51.061890,35.465088 
	C54.976299,35.112988 58.838326,35.184410 62.854343,36.020119 
	C64.004547,37.467342 65.000763,38.150280 65.996971,38.833218 
z"/>
<path fill="#D9D9D9" opacity="1.000000" stroke="none" 
	d="
M37.842445,50.997738 
	C33.541199,50.996769 29.708115,51.187424 25.914972,50.882019 
	C24.726501,50.786327 23.645580,49.354893 22.515430,48.534874 
	C22.775919,48.024014 23.036407,47.513157 23.296896,47.002300 
	C29.067295,47.002300 34.843018,46.876682 40.603073,47.120792 
	C41.612259,47.163563 42.555649,48.758808 43.529427,49.637062 
	C43.252911,50.025352 42.976391,50.413643 42.699871,50.801933 
	C41.241924,50.867218 39.783974,50.932503 37.842445,50.997738 
z"/>
<path fill="#D9D9D9" opacity="1.000000" stroke="none" 
	d="
M63.148518,60.998268 
	C60.404305,65.494698 56.117725,61.820591 52.689159,62.826397 
	C52.448738,62.896927 51.591164,60.863693 51.046585,59.362614 
	C51.072601,58.916492 51.000385,58.995083 51.429482,59.005589 
	C55.595856,59.034203 59.333138,59.052311 63.070419,59.070419 
	C63.070419,59.070419 63.000183,59.000179 62.993416,59.311459 
	C63.040607,60.081249 63.094563,60.539757 63.148518,60.998268 
z"/>
<path fill="#15191F" opacity="1.000000" stroke="none" 
	d="
M63.422447,60.924789 
	C63.094563,60.539757 63.040607,60.081249 62.958298,59.276337 
	C63.392498,58.955948 63.855057,58.981956 64.657959,59.078514 
	C64.564323,59.716473 64.130348,60.283894 63.422447,60.924789 
z"/>
<path fill="#171A21" opacity="1.000000" stroke="none" 
	d="
M65.931992,38.527382 
	C65.000763,38.150280 64.004547,37.467342 63.082966,36.393581 
	C64.060730,36.742352 64.963867,37.481945 65.931992,38.527382 
z"/>
<path fill="#15191F" opacity="1.000000" stroke="none" 
	d="
M63.035782,58.605217 
	C59.333138,59.052311 55.595856,59.034203 51.392944,59.044483 
	C51.205997,57.274437 49.993671,54.573963 53.684883,54.816113 
	C54.054131,54.840332 54.549072,52.948475 55.129498,51.241287 
	C56.530231,49.321358 57.787151,48.106022 59.044071,46.890686 
	C60.176453,46.959949 61.308834,47.029213 63.001144,47.132721 
	C63.001144,50.795986 63.001144,54.468002 63.035782,58.605217 
z"/>
<path fill="#171A21" opacity="1.000000" stroke="none" 
	d="
M59.022949,46.473946 
	C57.787151,48.106022 56.530231,49.321358 55.110031,50.826691 
	C53.789051,51.035686 52.631355,50.954685 51.237930,50.857193 
	C51.237930,47.417694 51.237930,43.997398 51.237930,40.286396 
	C55.005833,40.286396 58.746033,40.286396 63.204651,40.286396 
	C61.647556,42.424412 60.324692,44.240807 59.022949,46.473946 
z"/>
</svg>